<?xml version="1.0" encoding="UTF-8"?><svg version="1.1" viewBox="0 -37 434.012 434" xmlns="http://www.w3.org/2000/svg" xmlns:xlink="http://www.w3.org/1999/xlink"><g transform="matrix(1 0 0 1 -.006 0)"><path fill="#1AE5BE" d="M156.293 181.984c-1.85938.003906-3.64062-.734375-4.94922-2.05078l-54.293-54.2891c-2.73438-2.73438-2.73438-7.16797 0-9.90234 2.73438-2.73438 7.16797-2.73438 9.90234 0l49.4492 49.4531 90.7656-86.6914c2.79297-2.67188 7.22656-2.57031 9.89453.226563 2.67188 2.79297 2.57031 7.22656-.226562 9.89453l-95.707 91.4219c-1.30469 1.24219-3.03516 1.9375-4.83594 1.9375Z"></path><path fill="#1AE5BE" d="M275.953 359.922c-3.80078.011719-7.33984-1.93359-9.37109-5.14453 -.03125-.046875-.058593-.089844-.085937-.136719l-31.4766-52.1016h-39.7656c-3.86719 0-7-3.13281-7-7 0-3.86328 3.13281-7 7-7h43.7148c2.44922 0 4.72266 1.28125 5.99219 3.37891l31 51.3008 31-51.3008c1.26562-2.09766 3.53906-3.37891 5.98828-3.37891h84.0625c12.6953-.011718 22.9844-10.3008 23-23v-161.914c-.011719-12.6953-10.3047-22.9844-23-23h-50c-3.86719 0-7-3.13281-7-7 0-3.86328 3.13281-7 7-7h50c20.4258.023438 36.9766 16.5742 37 37v161.918c-.023438 20.4258-16.5742 36.9766-37 37h-80.1211l-31.4805 52.1016c-.023437.046875-.054687.089844-.082031.136719 -2.03516 3.21094-5.57422 5.15234-9.375 5.14062Z"></path><path fill="#0635C9" d="M41.0039 265.512h88.9414l35.9492 59.4961c.027344.042969.054688.089844.085938.136719 2.12891 3.37109 5.84375 5.41016 9.83203 5.39844 3.98828.011719 7.70312-2.02734 9.83594-5.39844 .027343-.046875.054687-.09375.085937-.140625l35.9453-59.4922h91.3203c22.6328-.027344 40.9727-18.3672 41-41v-183.504c-.027344-22.6328-18.3672-40.9766-41-41h-272c-22.6328.0234375-40.9727 18.3672-41 41v183.504c.0273438 22.6367 18.3672 40.9766 41.0039 41Zm-27-224.504c.015625-14.9062 12.0938-26.9844 27-27h272c14.9023.015626 26.9805 12.0938 27 27v183.504c-.019531 14.9062-12.0977 26.9844-27 27h-95.2734c-2.44922 0-4.72266 1.28516-5.98828 3.38281l-35.9297 59.4609 -35.9258-59.4609c-1.26562-2.09766-3.53906-3.37891-5.99219-3.37891h-92.8906c-14.9062-.019531-26.9844-12.0977-27-27Z"></path><path fill="#D4E1F4" d="M179.887 224.895c-1.26562-2.10156-3.53906-3.38281-5.99219-3.38281h-92.8906c-14.9062-.015625-26.9844-12.0938-27-27v-180.504h-13c-14.9062.015626-26.9844 12.0938-27 27v183.504c.015625 14.9062 12.0938 26.9844 27 27h92.8906c2.45312 0 4.72656 1.28125 5.99219 3.38281l35.9258 59.4609 29.0664-48.1016Z"></path></g></svg>