<?xml version="1.0" encoding="UTF-8"?><svg version="1.1" viewBox="0 -8 334.002 334" xmlns="http://www.w3.org/2000/svg" xmlns:xlink="http://www.w3.org/1999/xlink"><g transform="matrix(1 0 0 1 -.00078 0)"><path fill="#D4E1F4" d="M273.543 230.285c-1.66016.449219-3.09375 1.49219-4.03125 2.92969l-15.9023 24.3437 35.5586-9.62109 -1.07812-21.5898Z"></path><path fill="#D4E1F4" d="M199.492 255.965c-1.60547-.609375-3.37891-.609375-4.98438 0l-44.1719 16.8281 -25.8438-39.5781c-.941407-1.4375-2.375-2.48047-4.03516-2.92969l-45.625-12.3477 2.35156-47.2109c.085937-1.71875-.460938-3.40625-1.53906-4.74219l-29.6562-36.8125 29.6562-36.8086c1.07812-1.33984 1.625-3.02344 1.53906-4.74219l-1.27734-25.6211 -31.0742 8.41016 2.35156 47.2109c.085937 1.71875-.460938 3.40234-1.53906 4.74219l-29.6563 36.8086 29.6563 36.8125c1.07812 1.33594 1.625 3.02344 1.53906 4.74219l-2.35156 47.2109 45.625 12.3477c1.66016.449219 3.09375 1.49219 4.03516 2.92969l25.8438 39.5781 44.1719-16.8281c1.60547-.609375 3.37891-.609375 4.98438 0l44.1719 16.8281 21.6641-33.1758Z"></path><path fill="#1AE5BE" d="M128.301 145.062c-16.0117 0-28.9922-12.9766-28.9922-28.9883 0-16.0117 12.9805-28.9922 28.9922-28.9922 16.0117 0 28.9883 12.9805 28.9883 28.9922 -.015624 16.0039-12.9844 28.9727-28.9883 28.9883Zm0-43.9805c-8.27734 0-14.9922 6.71484-14.9922 14.9922 0 8.27734 6.71484 14.9883 14.9922 14.9883 8.27734 0 14.9883-6.71094 14.9883-14.9883 -.007812-8.27734-6.71484-14.9805-14.9883-14.9922Z"></path><path fill="#1AE5BE" d="M203.941 233.023c-16.0078 0-28.9883-12.9805-28.9883-28.9922 0-16.0117 12.9805-28.9883 28.9922-28.9883 16.0078 0 28.9883 12.9805 28.9883 28.9883 -.019532 16.0039-12.9883 28.9727-28.9922 28.9922Zm0-43.9805c-8.27734 0-14.9883 6.71094-14.9883 14.9922 0 8.27734 6.71094 14.9883 14.9922 14.9883 8.27734 0 14.9883-6.71094 14.9883-14.9922 -.007813-8.27344-6.71484-14.9805-14.9922-14.9883Z"></path><path fill="#0635C9" d="M33.0664 202.691l-2.5 50.1797c-.160156 3.28906 1.98828 6.24609 5.16406 7.10547l48.5 13.125 27.4688 42.0703c1.80078 2.75781 5.27734 3.88672 8.35547 2.71484l46.9453-17.8906 46.9492 17.8867c3.07422 1.17188 6.55078.042969 8.35156-2.71094l27.4688-42.0664 48.5-13.125c3.17969-.859375 5.32812-3.81641 5.16406-7.10547l-2.5-50.1797 31.5195-39.125c2.06641-2.5625 2.06641-6.22266 0-8.78516l-31.5195-39.125 2.5-50.1797c.160156-3.28516-1.98828-6.24219-5.16406-7.10156l-48.5-13.125 -27.4688-42.082c-1.80078-2.75391-5.27734-3.88281-8.35547-2.71094l-46.9453 17.8906 -46.9492-17.8867c-3.07422-1.17188-6.55078-.042969-8.35156 2.70703l-27.4688 42.0703 -48.5 13.125c-3.17578.859374-5.32422 3.81641-5.16406 7.10156l2.5 50.1797 -31.5156 39.1328c-2.06641 2.5625-2.06641 6.22266 0 8.78516Zm12.5781-80.3281c1.07812-1.33984 1.625-3.02344 1.53906-4.74219l-2.35156-47.2109 45.625-12.3477c1.66016-.449219 3.09375-1.49219 4.03516-2.92969l25.8438-39.5781 44.1719 16.8281c1.60547.609376 3.37891.609376 4.98438 0l44.1719-16.8281 25.8477 39.5781c.9375 1.4375 2.37109 2.48047 4.03125 2.92969l45.6289 12.3477 -2.35547 47.2109c-.085937 1.71875.460938 3.40234 1.53906 4.74219l29.6562 36.8086 -29.6562 36.8125c-1.07812 1.33594-1.625 3.02344-1.53906 4.74219l2.35547 47.2109 -45.6289 12.3477c-1.66016.449219-3.09375 1.49219-4.03125 2.92969l-25.8477 39.5781 -44.1719-16.8281c-1.60547-.609375-3.37891-.609375-4.98438 0l-44.1719 16.8281 -25.8438-39.5781c-.941407-1.4375-2.375-2.48047-4.03516-2.92969l-45.625-12.3477 2.35156-47.2109c.085937-1.71875-.460938-3.40625-1.53906-4.74219l-29.6563-36.8125Z"></path><path fill="#0635C9" d="M113.699 240.902c3.23828 2.11328 7.57812 1.19922 9.6875-2.03906l98.9531-151.73c1.37109-2.09375 1.51953-4.76172.390625-6.99609 -1.13281-2.23438-3.37109-3.69531-5.87109-3.82812 -2.5-.136719-4.88281 1.07812-6.24609 3.17578l-98.9531 151.73c-2.11328 3.23828-1.19922 7.57422 2.03906 9.6875Z"></path></g></svg>