<?xml version="1.0" encoding="UTF-8"?><svg version="1.1" viewBox="0 -28 470 470" xmlns="http://www.w3.org/2000/svg" xmlns:xlink="http://www.w3.org/1999/xlink"><g transform="matrix(1 0 0 1 -2e-05 0)"><path fill="#D4E1F4" d="M437 369h-360c-18.2148-.019531-32.9805-14.7852-33-33v-251.5c0-.96875.050781-1.92188.132812-2.86719 -17.0391 1.50391-30.1094 15.7617-30.1328 32.8672v251.5c.019531 18.2148 14.7852 32.9805 33 33h360c17.1016-.023438 31.3633-13.0938 32.8672-30.1328 -.945313.082031-1.89844.132812-2.86719.132812Z"></path><path fill="#1AE5BE" d="M413.137 57.2344h-40c-3.86719 0-7 3.13281-7 7 0 3.86328 3.13281 7 7 7h23.1016l-56.3594 56.3555c-2.73438 2.73438-2.73438 7.16797 0 9.89844 2.73438 2.73438 7.16797 2.73438 9.90234 0l56.3555-56.3555v23.1016c0 3.86328 3.13281 7 7 7 3.86719 0 7-3.13672 7-7v-40c0-3.86719-3.13281-7-7-7Z"></path><path fill="#1AE5BE" d="M447 292h-276.238c9.86719-6.59375 15.8047-17.668 15.8398-29.5391 0-19.7148-16.2539-35.7539-36.2305-35.7539 -12.2148-.011719-23.6172 6.09766-30.3711 16.2734v-168.98c0-3.86719-3.13281-7-7-7 -3.86719 0-7 3.13281-7 7v168.984c-3.08984-4.69141-7.23438-8.59375-12.1016-11.3984 -5.55469-3.19922-11.8555-4.88281-18.2695-4.87891 -19.9766 0-36.2266 16.0391-36.2266 35.7539 .03125 11.8672 5.96875 22.9414 15.8359 29.5391h-48.2383c-3.86719 0-7 3.13281-7 7 0 3.86719 3.13281 7 7 7h89.1016l-33.0508 33.0508c-2.73438 2.73438-2.73438 7.16406 0 9.89844 2.73437 2.73438 7.16406 2.73438 9.89844 0l33.0508-33.0508v90.1016c0 3.86719 3.13281 7 7 7 3.86719 0 7-3.13281 7-7v-90.1016l44.5508 44.5508c2.73438 2.73438 7.16406 2.73438 9.89844 0 2.73438-2.73047 2.73438-7.16406 0-9.89844l-44.5508-44.5508h317.102c3.86719 0 7-3.13281 7-7 0-3.86719-3.13281-7-7-7Zm-318.469-33.5938c2.32422-11.0703 12.5781-18.6406 23.8398-17.6016 11.2656 1.03516 19.9609 10.3477 20.2305 21.6562 -.097656 10.5312-7.67578 19.5039-18.0469 21.3633l-32.1211 6.02734Zm-52.9023-17.6992c3.95703-.003906 7.84375 1.03125 11.2773 3 5.48438 3.13281 9.33984 8.49609 10.5625 14.6914l6.10156 31.4453 -32.125-6.02734c-11.2148-1.92188-19.0469-12.1758-17.9453-23.5039 1.09766-11.3281 10.7539-19.8828 22.1328-19.6133Z"></path><path fill="#0635C9" d="M370.684 0c-42.5742.0507812-80.4023 27.1875-94.0898 67.5h-229.594c-25.9453.027344-46.9727 21.0547-47 47v251.5c.0273438 25.9453 21.0547 46.9727 47 47h360c25.9453-.027344 46.9727-21.0547 47-47v-212.688c19.8164-30.5312 21.332-69.4609 3.95312-101.441 -17.3828-31.9844-50.8711-51.8867-87.2695-51.8711Zm36.3164 399h-360c-18.2148-.019531-32.9805-14.7852-33-33v-251.5c.019531-18.2148 14.7852-32.9805 33-33h225.969c-7.77734 42.5273 12.8594 85.1953 51.0273 105.5 38.1641 20.3086 85.082 13.5781 116.004-16.6328v195.633c-.019531 18.2148-14.7852 32.9805-33 33Zm-36.3164-214.367c-47.1211 0-85.3164-38.1953-85.3164-85.3164 0-47.1172 38.1953-85.3164 85.3164-85.3164 47.1172 0 85.3164 38.1992 85.3164 85.3164 -.054688 47.0977-38.2188 85.2656-85.3164 85.3164Z"></path></g></svg>